<svg width="711" height="370" viewBox="0 0 711 370" fill="none" xmlns="http://www.w3.org/2000/svg">
<path d="M8.20842 182.37L7.29718 194.584L19.5107 195.495L20.4219 183.281L8.20842 182.37ZM307.425 359.079L308.12 360.409L308.12 360.409L307.425 359.079ZM410.595 11.2896L410.978 9.83926L410.595 11.2896ZM685.415 229.973C685.93 230.622 686.873 230.731 687.523 230.217L698.103 221.832C698.752 221.317 698.861 220.374 698.347 219.724C697.832 219.075 696.889 218.966 696.239 219.48L686.835 226.934L679.381 217.529C678.867 216.88 677.923 216.771 677.274 217.285C676.625 217.8 676.516 218.743 677.03 219.393L685.415 229.973ZM12.7229 189.911C15.3785 192.995 18.1782 196.188 21.1113 199.472L23.3488 197.473C20.4273 194.202 17.6395 191.023 14.9962 187.954L12.7229 189.911ZM38.4406 218.265C44.0992 224.218 50.0767 230.34 56.3229 236.55L58.438 234.422C52.2122 228.233 46.2545 222.131 40.6151 216.198L38.4406 218.265ZM74.6905 254.304C80.8097 260.053 87.1136 265.812 93.564 271.519L95.552 269.272C89.125 263.586 82.8432 257.847 76.7447 252.117L74.6905 254.304ZM112.972 288.139C119.54 293.575 126.213 298.904 132.957 304.069L134.781 301.687C128.069 296.547 121.425 291.242 114.884 285.828L112.972 288.139ZM153.588 319.168C160.69 324.117 167.828 328.826 174.965 333.231L176.541 330.679C169.456 326.305 162.364 321.627 155.303 316.707L153.588 319.168ZM197.214 345.936C205.038 350.021 212.811 353.656 220.481 356.751L221.604 353.969C214.036 350.915 206.352 347.323 198.603 343.276L197.214 345.936ZM244.861 364.771C253.618 366.94 262.162 368.22 270.397 368.453L270.482 365.454C262.496 365.228 254.168 363.986 245.582 361.859L244.861 364.771ZM296.055 365.3C300.214 364.056 304.241 362.435 308.12 360.409L306.731 357.75C303.026 359.685 299.177 361.235 295.196 362.426L296.055 365.3ZM308.12 360.409C312.179 358.289 315.71 355.689 318.758 352.652L316.64 350.527C313.811 353.346 310.526 355.768 306.731 357.75L308.12 360.409ZM331.43 330.082C333.635 322.43 334.725 313.838 334.966 304.536L331.967 304.459C331.731 313.585 330.662 321.911 328.548 329.252L331.43 330.082ZM333.849 278.951C333.035 270.808 331.831 262.322 330.352 253.593L327.394 254.094C328.864 262.773 330.058 271.191 330.864 279.249L333.849 278.951ZM325.572 228.512C323.867 220.309 322.025 211.979 320.131 203.598L317.205 204.26C319.097 212.632 320.935 220.943 322.635 229.123L325.572 228.512ZM314.462 178.761C312.565 170.434 310.696 162.127 308.937 153.909L306.003 154.537C307.767 162.775 309.639 171.096 311.537 179.427L314.462 178.761ZM303.953 128.969C302.389 120.384 301.049 111.991 300.033 103.877L297.056 104.25C298.081 112.432 299.43 120.881 301.002 129.507L303.953 128.969ZM298 78.7347C297.754 69.7275 298.146 61.2946 299.346 53.5844L296.382 53.1228C295.147 61.0568 294.751 69.6784 295.001 78.8167L298 78.7347ZM307.005 29.995C311.056 22.8192 316.631 16.9888 324.079 12.766L322.6 10.1563C314.649 14.6638 308.694 20.8999 304.392 28.5202L307.005 29.995ZM347.603 5.61576C354.953 4.76297 363.305 4.74326 372.767 5.65862L373.056 2.67255C363.425 1.74093 354.857 1.754 347.257 2.63575L347.603 5.61576ZM397.516 9.66966C401.592 10.5598 405.823 11.5818 410.213 12.74L410.978 9.83926C406.55 8.67086 402.277 7.63868 398.156 6.73872L397.516 9.66966ZM410.213 12.74C414.519 13.8761 418.77 15.0456 422.968 16.2471L423.794 13.3629C419.576 12.1557 415.304 10.9806 410.978 9.83926L410.213 12.74ZM448.11 24.0264C456.628 26.8654 464.9 29.836 472.93 32.923L474.007 30.1228C465.934 27.0195 457.619 24.0335 449.059 21.1804L448.11 24.0264ZM497.266 42.9442C505.491 46.5648 513.43 50.3055 521.086 54.1462L522.431 51.4647C514.73 47.6013 506.746 43.8393 498.474 40.1984L497.266 42.9442ZM544.32 66.581C552.158 71.0521 559.652 75.6205 566.806 80.259L568.438 77.7418C561.236 73.0722 553.694 68.4742 545.807 63.9751L544.32 66.581ZM588.439 95.2324C595.747 100.633 602.623 106.087 609.073 111.554L611.013 109.266C604.512 103.755 597.583 98.2599 590.222 92.8197L588.439 95.2324ZM628.498 129.273C635.056 135.727 641.025 142.138 646.416 148.44L648.696 146.489C643.247 140.12 637.219 133.647 630.602 127.135L628.498 129.273ZM662.453 169.227C667.87 177.11 672.297 184.665 675.763 191.74L678.457 190.42C674.919 183.199 670.416 175.517 664.926 167.528L662.453 169.227ZM684.406 216.216C685.305 220.999 685.521 225.243 685.101 228.869L688.081 229.214C688.544 225.218 688.295 220.662 687.354 215.661L684.406 216.216ZM2.55729 175.808L0.734812 200.235L25.1618 202.057L26.9843 177.63L2.55729 175.808ZM307.425 359.079L308.814 361.738L308.814 361.738L307.425 359.079ZM410.595 11.2896L411.361 8.38889L410.595 11.2896ZM684.24 230.904C685.269 232.203 687.156 232.421 688.454 231.392L709.615 214.622C710.913 213.593 711.132 211.706 710.102 210.407C709.073 209.109 707.186 208.891 705.888 209.92L687.079 224.827L672.172 206.017C671.143 204.719 669.256 204.501 667.957 205.53C666.659 206.559 666.441 208.446 667.47 209.744L684.24 230.904ZM11.5863 190.89C14.2479 193.981 17.0536 197.18 19.9925 200.471L24.4676 196.474C21.5519 193.21 18.7701 190.037 16.1328 186.975L11.5863 190.89ZM37.3533 219.298C43.0215 225.262 49.0089 231.394 55.2654 237.614L59.4955 233.359C53.2799 227.179 47.3321 221.088 41.7023 215.165L37.3533 219.298ZM73.6635 255.397C79.7929 261.156 86.1078 266.925 92.5701 272.642L96.546 268.149C90.1308 262.473 83.86 256.744 77.7718 251.024L73.6635 255.397ZM112.015 289.295C118.597 294.742 125.285 300.083 132.045 305.259L135.693 300.496C128.998 295.369 122.368 290.075 115.841 284.672L112.015 289.295ZM152.731 320.399C159.852 325.362 167.015 330.087 174.177 334.508L177.328 329.402C170.27 325.045 163.201 320.382 156.161 315.476L152.731 320.399ZM196.52 347.265C204.38 351.37 212.199 355.026 219.92 358.142L222.165 352.578C214.649 349.545 207.009 345.974 199.297 341.947L196.52 347.265ZM244.5 366.227C253.344 368.417 261.995 369.716 270.354 369.953L270.524 363.955C262.663 363.732 254.443 362.508 245.943 360.403L244.5 366.227ZM296.485 366.737C300.732 365.467 304.849 363.81 308.814 361.738L306.037 356.42C302.419 358.31 298.658 359.825 294.766 360.988L296.485 366.737ZM308.814 361.738C313.005 359.55 316.66 356.86 319.817 353.714L315.582 349.464C312.861 352.175 309.7 354.507 306.037 356.42L308.814 361.738ZM332.872 330.498C335.121 322.69 336.222 313.964 336.465 304.575L330.467 304.42C330.233 313.459 329.176 321.652 327.106 328.837L332.872 330.498ZM335.342 278.801C334.523 270.617 333.314 262.096 331.831 253.343L325.915 254.345C327.381 262.999 328.57 271.382 329.372 279.399L335.342 278.801ZM327.041 228.207C325.333 219.991 323.489 211.652 321.594 203.268L315.742 204.59C317.633 212.959 319.469 221.261 321.166 229.428L327.041 228.207ZM315.925 178.427C314.028 170.103 312.161 161.804 310.404 153.595L304.537 154.851C306.302 163.098 308.176 171.427 310.075 179.761L315.925 178.427ZM305.429 128.7C303.869 120.135 302.533 111.771 301.521 103.691L295.567 104.436C296.597 112.652 297.951 121.13 299.526 129.776L305.429 128.7ZM299.499 78.6937C299.255 69.7521 299.645 61.4135 300.828 53.8152L294.9 52.892C293.647 60.9379 293.25 69.6538 293.502 78.8577L299.499 78.6937ZM308.311 30.7324C312.237 23.7789 317.622 18.1513 324.819 14.0709L321.86 8.85139C313.658 13.5014 307.513 19.9402 303.086 27.7828L308.311 30.7324ZM347.776 7.10576C355.001 6.26746 363.244 6.24443 372.623 7.15165L373.201 1.17952C363.485 0.239761 354.809 0.249515 347.085 1.14574L347.776 7.10576ZM397.196 11.1351C401.25 12.0204 405.46 13.0373 409.83 14.1904L411.361 8.38889C406.913 7.21539 402.619 6.1781 398.476 5.27325L397.196 11.1351ZM409.83 14.1904C414.126 15.3238 418.368 16.4906 422.555 17.6892L424.206 11.9208C419.978 10.7107 415.697 9.53291 411.361 8.38889L409.83 14.1904ZM447.636 25.4495C456.132 28.2813 464.383 31.2443 472.392 34.3232L474.545 28.7227C466.451 25.6112 458.115 22.6176 449.533 19.7573L447.636 25.4495ZM496.662 44.317C504.864 47.9276 512.78 51.6576 520.414 55.4869L523.104 50.1239C515.38 46.2493 507.373 42.4765 499.079 38.8255L496.662 44.317ZM543.577 67.8839C551.391 72.341 558.86 76.8946 565.989 81.5176L569.254 76.4833C562.028 71.7981 554.462 67.1853 546.55 62.6722L543.577 67.8839ZM587.547 96.4387C594.829 101.82 601.679 107.253 608.103 112.699L611.983 108.122C605.456 102.589 598.501 97.0732 591.113 91.6134L587.547 96.4387ZM627.445 130.342C633.974 136.767 639.914 143.147 645.276 149.415L649.835 145.514C644.358 139.112 638.301 132.607 631.654 126.066L627.445 130.342ZM661.217 170.077C666.597 177.906 670.985 185.398 674.416 192.4L679.804 189.76C676.23 182.466 671.689 174.721 666.162 166.679L661.217 170.077ZM682.931 216.494C683.811 221.167 684.009 225.255 683.611 228.696L689.571 229.386C690.055 225.206 689.79 220.494 688.828 215.384L682.931 216.494Z" fill="#7913DF"/>
</svg>
