<svg width="724" height="415" viewBox="0 0 724 415" fill="none" xmlns="http://www.w3.org/2000/svg">
<path d="M78.5639 201.432C53.8942 192.972 37.4042 180.636 29.0939 164.423C20.8355 148.059 20.8584 127.77 29.1627 103.554L60.1481 13.1993L109.185 30.0155L77.9659 121.051C74.4885 131.192 73.809 139.585 75.9275 146.232C78.1973 152.93 83.7214 157.785 92.4995 160.795C101.278 163.805 108.543 163.337 114.294 159.389C120.197 155.493 124.887 148.475 128.365 138.335L159.584 47.2988L207.712 63.8035L176.727 154.158C168.423 178.374 156.141 194.46 139.881 202.415C123.824 210.272 103.385 209.944 78.5639 201.432ZM177.983 232.481L232.869 72.4306L281.906 89.2468L227.02 249.297L177.983 232.481ZM265.704 279.309L228.472 266.541L353.166 99.7295L390.398 112.497L265.704 279.309ZM410.45 315.246C385.781 306.786 369.291 294.45 360.98 278.237C352.722 261.873 352.745 241.584 361.049 217.368L392.035 127.013L441.071 143.829L409.852 234.865C406.375 245.006 405.696 253.399 407.814 260.046C410.084 266.744 415.608 271.599 424.386 274.609C433.164 277.619 440.429 277.15 446.181 273.203C452.084 269.307 456.774 262.289 460.251 252.148L491.47 161.113L539.599 177.617L508.614 267.972C500.309 292.188 488.027 308.274 471.767 316.229C455.71 324.086 435.272 323.758 410.45 315.246ZM486.513 338.285L587.434 270.391L579.727 292.867L542.307 178.546L599.517 198.165L619.114 266.793L603.223 261.344L661.267 219.341L718.476 238.96L618.548 306.179L626.255 283.704L664.725 399.4L607.289 379.703L586.861 310.536L602.071 315.752L543.496 357.826L486.513 338.285Z" fill="white" fill-opacity="0.05"/>
</svg>
